<?xml version="1.0" encoding="UTF-8" standalone="no"?>
<svg width="27px" height="26px" viewBox="0 0 27 26" version="1.1" xmlns="http://www.w3.org/2000/svg" xmlns:xlink="http://www.w3.org/1999/xlink">
    <!-- Generator: Sketch 47.1 (45422) - http://www.bohemiancoding.com/sketch -->
    <title>castle</title>
    <desc>Created with Sketch.</desc>
    <defs></defs>
    <g id="Pages-Visitor" stroke="none" stroke-width="1" fill="none" fill-rule="evenodd">
        <g id="Home-Copy" transform="translate(-459.000000, -678.000000)" fill-rule="nonzero" fill="#EA8764">
            <g id="//-Search-Bar" transform="translate(164.000000, 659.000000)">
                <g id="::-Interests" transform="translate(277.000000, 0.000000)">
                    <g id="castle" transform="translate(18.000000, 19.000000)">
                        <path d="M6.58333333,1.08333333 L6.58333333,2.16666667 C6.58333333,2.76497515 7.06835819,3.25 7.66666667,3.25 C8.26497515,3.25 8.75,2.76497515 8.75,2.16666667 L8.75,1.08333333 C8.75,0.485024854 8.26497515,0 7.66666667,0 C7.06835819,0 6.58333333,0.485024854 6.58333333,1.08333333 Z" id="Shape"></path>
                        <path d="M2.55417444,23.8333333 L3.09584111,21.6666667 L12.2374922,21.6666667 L12.7791589,23.8333333 L2.55417444,23.8333333 Z M14.1666667,26 C14.8714521,26 15.38859,25.337662 15.2176544,24.6539198 L14.134321,20.3205864 C14.0137549,19.8383222 13.5804399,19.5 13.0833333,19.5 L2.25,19.5 C1.75289339,19.5 1.31957835,19.8383222 1.19901229,20.3205864 L0.115678958,24.6539198 C-0.0552566128,25.337662 0.461881254,26 1.16666667,26 L14.1666667,26 Z" id="Shape"></path>
                        <path d="M3.33333333,21.6666667 L12,21.6666667 C12.5983084,21.6666667 13.0833333,21.1816418 13.0833333,20.5833333 L13.0833333,7.58333333 C13.0833333,6.98502485 12.5983084,6.5 12,6.5 L3.33333333,6.5 C2.73502485,6.5 2.25,6.98502485 2.25,7.58333333 L2.25,20.5833333 C2.25,21.1816418 2.73502485,21.6666667 3.33333333,21.6666667 Z M4.41666667,8.66666667 L10.9166667,8.66666667 L10.9166667,19.5 L4.41666667,19.5 L4.41666667,8.66666667 Z" id="Shape"></path>
                        <path d="M11.1744459,6.5 L4.15888743,6.5 L7.66666667,3.57685064 L11.1744459,6.5 Z M14.1666667,8.66666667 C15.1799049,8.66666667 15.6385909,7.39975289 14.8601998,6.75109361 L8.36019977,1.33442695 C7.95844999,0.999635463 7.37488335,0.999635463 6.97313357,1.33442695 L0.473133567,6.75109361 C-0.305257565,7.39975289 0.153428488,8.66666667 1.16666667,8.66666667 L14.1666667,8.66666667 Z" id="Shape"></path>
                        <path d="M13.115679,25.1794136 C13.2362451,25.6616778 13.6695601,26 14.1666667,26 L25,26 C25.5983084,26 26.0833333,25.5149751 26.0833333,24.9166667 L26.0833333,13 C26.0833333,12.4016916 25.5983084,11.9166667 25,11.9166667 L12,11.9166667 C11.4016916,11.9166667 10.9166667,12.4016916 10.9166667,13 L10.9166667,20.5833333 C10.9166667,21.1816418 11.4016916,21.6666667 12,21.6666667 L12.2374922,21.6666667 L13.115679,25.1794136 Z M23.9166667,14.0833333 L23.9166667,23.8333333 L15.0125078,23.8333333 L14.134321,20.3205864 C14.0137549,19.8383222 13.5804399,19.5 13.0833333,19.5 L13.0833333,14.0833333 L23.9166667,14.0833333 Z" id="Shape"></path>
                        <path d="M14.1666667,10.8333333 L14.1666667,13 C14.1666667,13.5983084 14.6516916,14.0833333 15.25,14.0833333 C15.8483084,14.0833333 16.3333333,13.5983084 16.3333333,13 L16.3333333,10.8333333 C16.3333333,10.2350249 15.8483084,9.75 15.25,9.75 C14.6516916,9.75 14.1666667,10.2350249 14.1666667,10.8333333 Z" id="Shape"></path>
                        <path d="M14.1666667,16.25 L14.1666667,17.3333333 C14.1666667,17.9316418 14.6516916,18.4166667 15.25,18.4166667 C15.8483084,18.4166667 16.3333333,17.9316418 16.3333333,17.3333333 L16.3333333,16.25 C16.3333333,15.6516916 15.8483084,15.1666667 15.25,15.1666667 C14.6516916,15.1666667 14.1666667,15.6516916 14.1666667,16.25 Z" id="Shape"></path>
                        <path d="M20.6666667,16.25 L20.6666667,17.3333333 C20.6666667,17.9316418 21.1516916,18.4166667 21.75,18.4166667 C22.3483084,18.4166667 22.8333333,17.9316418 22.8333333,17.3333333 L22.8333333,16.25 C22.8333333,15.6516916 22.3483084,15.1666667 21.75,15.1666667 C21.1516916,15.1666667 20.6666667,15.6516916 20.6666667,16.25 Z" id="Shape"></path>
                        <path d="M6.58333333,10.8333333 L6.58333333,11.9166667 C6.58333333,12.5149751 7.06835819,13 7.66666667,13 C8.26497515,13 8.75,12.5149751 8.75,11.9166667 L8.75,10.8333333 C8.75,10.2350249 8.26497515,9.75 7.66666667,9.75 C7.06835819,9.75 6.58333333,10.2350249 6.58333333,10.8333333 Z" id="Shape"></path>
                        <path d="M6.58333333,16.25 L6.58333333,17.3333333 C6.58333333,17.9316418 7.06835819,18.4166667 7.66666667,18.4166667 C8.26497515,18.4166667 8.75,17.9316418 8.75,17.3333333 L8.75,16.25 C8.75,15.6516916 8.26497515,15.1666667 7.66666667,15.1666667 C7.06835819,15.1666667 6.58333333,15.6516916 6.58333333,16.25 Z" id="Shape"></path>
                        <path d="M18.5,10.8333333 L18.5,13 C18.5,13.5983084 18.9850249,14.0833333 19.5833333,14.0833333 C20.1816418,14.0833333 20.6666667,13.5983084 20.6666667,13 L20.6666667,10.8333333 C20.6666667,10.2350249 20.1816418,9.75 19.5833333,9.75 C18.9850249,9.75 18.5,10.2350249 18.5,10.8333333 Z" id="Shape"></path>
                        <path d="M22.8333333,10.8333333 L22.8333333,13 C22.8333333,13.5983084 23.3183582,14.0833333 23.9166667,14.0833333 C24.5149751,14.0833333 25,13.5983084 25,13 L25,10.8333333 C25,10.2350249 24.5149751,9.75 23.9166667,9.75 C23.3183582,9.75 22.8333333,10.2350249 22.8333333,10.8333333 Z" id="Shape"></path>
                        <path d="M17.4166667,23.8333333 L17.4166667,21.6666667 C17.4166667,21.0678918 17.9012251,20.5833333 18.5,20.5833333 C19.0987749,20.5833333 19.5833333,21.0678918 19.5833333,21.6666667 L19.5833333,23.8333333 L17.4166667,23.8333333 Z M20.6666667,26 C21.2649751,26 21.75,25.5149751 21.75,24.9166667 L21.75,21.6666667 C21.75,19.8712749 20.2953918,18.4166667 18.5,18.4166667 C16.7046082,18.4166667 15.25,19.8712749 15.25,21.6666667 L15.25,24.9166667 C15.25,25.5149751 15.7350249,26 16.3333333,26 L20.6666667,26 Z" id="Shape"></path>
                    </g>
                </g>
            </g>
        </g>
    </g>
</svg>