<?xml version="1.0" encoding="UTF-8" standalone="no"?>
<svg width="25px" height="24px" viewBox="0 0 25 24" version="1.1" xmlns="http://www.w3.org/2000/svg" xmlns:xlink="http://www.w3.org/1999/xlink">
    <!-- Generator: Sketch 47.1 (45422) - http://www.bohemiancoding.com/sketch -->
    <title>map</title>
    <desc>Created with Sketch.</desc>
    <defs></defs>
    <g id="Pages-Visitor" stroke="none" stroke-width="1" fill="none" fill-rule="evenodd">
        <g id="Home-Copy" transform="translate(-180.000000, -679.000000)" fill-rule="nonzero" fill="#EA8764">
            <g id="//-Search-Bar" transform="translate(164.000000, 659.000000)">
                <g id="::-What">
                    <g id="map" transform="translate(16.314286, 20.000000)">
                        <path d="M23.7565791,0.170339266 C23.327372,-0.0662133 22.804556,-0.0557569812 22.3851505,0.197767837 L16.1177219,4.01719641 L8.94857907,0.15662498 L8.86629335,0.115482123 L8.80115049,0.0949106944 C8.7300557,0.0659525428 8.65665502,0.043014831 8.58172192,0.0263392658 L8.53029335,0.0263392658 C8.46120783,0.0141429874 8.39128832,0.00726565842 8.32115049,0.00576783724 L8.27315049,0.00576783724 C8.19374723,0.00690351693 8.11459263,0.0149336929 8.03657907,0.0297678372 L7.97486478,0.0297678372 C7.91068934,0.0446421728 7.84766903,0.0641211767 7.78629335,0.0880535515 L7.74172192,0.0880535515 C7.68255431,0.113700445 7.62526931,0.143488643 7.57029335,0.177196409 L0.658293351,4.42519641 C0.248104549,4.67490782 -0.00159166847,5.12097971 7.63670055e-06,5.60119641 L7.63670055e-06,22.1783393 C7.67677294e-05,22.674689 0.268331146,23.1322649 0.701411407,23.3747614 C1.13449167,23.6172579 1.66480035,23.6068249 2.08800764,23.3474821 L8.34172192,19.5280536 L15.5108648,23.388625 L15.5931505,23.4263393 L15.6480076,23.4503393 C15.7202121,23.4794814 15.7947672,23.5024214 15.8708648,23.5189107 L15.9154362,23.5189107 C15.9879088,23.5316433 16.0612885,23.5385227 16.1348648,23.5394821 L16.1760076,23.5394821 C16.2565572,23.5385462 16.3368678,23.5305152 16.4160076,23.5154821 L16.4708648,23.5154821 C16.5374557,23.4998137 16.6027809,23.4791846 16.6662934,23.4537678 L16.7074362,23.4537678 C16.7666038,23.4281209 16.8238888,23.3983327 16.8788648,23.364625 L23.8045791,19.1337678 C24.2176742,18.8806948 24.466603,18.4284524 24.4594362,17.9440536 L24.4594362,1.36691069 C24.4591267,0.870202458 24.1902666,0.412484482 23.7565791,0.170339266 Z M9.66857907,3.66062498 L14.7874362,6.40348212 L14.7874362,19.884625 L9.66857907,17.1417678 L9.66857907,3.66062498 Z M2.74286478,6.36576784 L6.92572192,3.81148212 L6.92572192,17.1829107 L2.74286478,19.7371964 L2.74286478,6.36576784 Z M21.7165791,17.1794821 L17.5337219,19.7337678 L17.5337219,6.36233927 L21.7165791,3.80805355 L21.7165791,17.1794821 Z" id="Shape"></path>
                    </g>
                </g>
            </g>
        </g>
    </g>
</svg>