<?xml version="1.0" encoding="UTF-8" standalone="no"?>
<svg width="20px" height="24px" viewBox="0 0 20 24" version="1.1" xmlns="http://www.w3.org/2000/svg" xmlns:xlink="http://www.w3.org/1999/xlink">
    <!-- Generator: Sketch 47.1 (45422) - http://www.bohemiancoding.com/sketch -->
    <title>place</title>
    <desc>Created with Sketch.</desc>
    <defs></defs>
    <g id="Pages-Visitor" stroke="none" stroke-width="1" fill="none" fill-rule="evenodd">
        <g id="Home-Copy" transform="translate(-734.000000, -679.000000)" fill-rule="nonzero" fill="#EA8764">
            <g id="//-Search-Bar" transform="translate(164.000000, 659.000000)">
                <g id="::-Location" transform="translate(554.000000, 0.000000)">
                    <g id="place" transform="translate(16.000000, 20.000000)">
                        <path d="M17.4608696,4.06956522 C15.6869565,1.46086957 12.8695652,0 9.73913043,0 C6.60869565,0 3.79130435,1.46086957 2.0173913,4.06956522 C0.243478261,6.60869565 -0.139130435,9.87826087 0.939130435,12.7304348 C1.25217391,13.5304348 1.70434783,14.2956522 2.33043478,15.026087 L9.73913043,23.7217391 L17.1826087,14.9913043 L17.1826087,14.9913043 C17.8086957,14.2608696 18.2608696,13.4956522 18.573913,12.6956522 C19.6521739,9.84347826 19.2347826,6.60869565 17.4608696,4.06956522 Z M15.9652174,11.7217391 C15.7913043,12.2086957 15.4782609,12.6956522 15.0608696,13.1826087 L15.0608696,13.1826087 L9.73913043,19.4086957 L4.4173913,13.1826087 C4,12.6956522 3.68695652,12.2086957 3.51304348,11.7217391 C2.74782609,9.70434783 3.02608696,7.44347826 4.27826087,5.63478261 C5.53043478,3.82608696 7.51304348,2.7826087 9.73913043,2.7826087 C11.9652174,2.7826087 13.9478261,3.82608696 15.2,5.63478261 C16.4173913,7.44347826 16.7304348,9.70434783 15.9652174,11.7217391 Z" id="Shape"></path>
                        <path d="M9.73913043,4.48695652 C7.37391304,4.48695652 5.46086957,6.36521739 5.46086957,8.69565217 C5.46086957,11.026087 7.37391304,12.9043478 9.73913043,12.9043478 C12.1043478,12.9043478 14.0173913,11.026087 14.0173913,8.69565217 C14.0173913,6.36521739 12.1043478,4.48695652 9.73913043,4.48695652 Z M9.73913043,10.0521739 C8.97391304,10.0521739 8.31304348,9.46086957 8.31304348,8.69565217 C8.31304348,7.93043478 8.93913043,7.33913043 9.73913043,7.33913043 C10.5043478,7.33913043 11.1652174,7.93043478 11.1652174,8.69565217 C11.1652174,9.46086957 10.5043478,10.0521739 9.73913043,10.0521739 Z" id="Shape"></path>
                    </g>
                </g>
            </g>
        </g>
    </g>
</svg>