<svg preserveAspectRatio="none" width="100%" height="100%" overflow="visible" style="display: block;" viewBox="0 0 549.507 555.242" fill="none" xmlns="http://www.w3.org/2000/svg">
<g id="stroke-default">
<path id="2px" d="M72.341 504.125C42.1766 498.616 35.6741 495.093 30.1651 491.029C20.4113 484.256 16.0763 469.716 14.9926 452.827C13.1375 427.018 14.2283 401.082 18.2438 375.52C23.1207 347.071 39.8285 332.26 47.4148 318.081C53.9173 305.979 69.0898 161.208 85.7976 105.395C87.72 97.0014 91.9261 89.303 97.9508 83.1508C103.976 76.9985 111.584 72.6321 119.936 70.5344C188.279 50.6031 259.176 40.8052 330.364 41.4537C355.922 42.5375 375.52 64.0319 381.661 86.61C392.86 123.548 403.698 196.069 411.555 260.1C414.354 282.859 414.987 309.953 429.617 315.01C444.248 320.068 471.342 324.042 488.14 331.808C493.443 333.543 498.196 336.643 501.921 340.796C505.646 344.95 508.213 350.011 509.363 355.47C514.692 377.507 512.163 439.732 497.894 471.702C493.98 478.979 488.581 485.352 482.046 490.408C475.512 495.465 467.988 499.092 459.962 501.054C438.448 507.453 416.32 511.57 393.944 513.337M510.266 359.354C514.233 359.354 518.162 360.135 521.827 361.653C525.492 363.171 528.822 365.397 531.628 368.202C534.433 371.007 536.658 374.337 538.176 378.003C539.694 381.668 540.476 385.596 540.476 389.563C540.476 393.53 539.694 397.459 538.176 401.124C536.658 404.789 534.433 408.119 531.628 410.925C528.822 413.73 525.492 415.955 521.827 417.473C518.162 418.991 514.233 419.773 510.266 419.773M377.417 284.304C376.774 289.008 374.694 293.398 371.461 296.873C368.227 300.349 363.999 302.741 359.354 303.721C276.315 307.157 193.146 305.74 110.272 299.477C105.02 298.837 100.183 296.299 96.6724 292.339C93.1623 288.38 91.2217 283.273 91.2163 277.982C94.9843 225.016 102.988 172.437 115.149 120.748C116.003 115.64 118.302 110.884 121.776 107.042C125.249 103.201 129.75 100.435 134.747 99.0731C195.553 83.6318 257.894 75.0289 320.61 73.4244C327.555 72.9587 334.436 74.9993 340.004 79.1753C345.572 83.3514 349.458 89.386 350.955 96.1831C363.217 145.105 371.731 194.892 376.423 245.108M180.716 492.023C180.716 521.95 156.455 546.21 126.529 546.21C96.6016 546.21 72.341 521.95 72.341 492.023C72.341 462.096 96.6016 437.835 126.529 437.835C156.455 437.835 180.716 462.096 180.716 492.023ZM397.466 492.023C397.466 521.95 373.205 546.21 343.279 546.21C313.352 546.21 289.091 521.95 289.091 492.023C289.091 462.096 313.352 437.835 343.279 437.835C373.205 437.835 397.466 462.096 397.466 492.023ZM376.062 245.108C363.416 239.695 349.888 236.634 336.144 236.077C327.564 236.077 328.106 283.22 336.144 285.298C351.714 287.924 367.666 287.185 382.926 283.13C387.983 281.053 383.829 248.179 376.062 245.108Z" stroke="var(--stroke-0, #494A4A)" stroke-width="18.0625" stroke-linecap="round" stroke-linejoin="round"/>
<path id="1px" d="M296.678 519.658C255.856 521.528 214.958 520.895 174.214 517.762M326.029 338.491C317.721 332.169 289.904 332.802 280.873 341.291M167.802 55.9034C149.017 27.9066 104.583 15.8047 81.6437 17.7013M21.9471 158.318C26.5783 156.262 31.526 155.009 36.5777 154.615M17.0702 128.334C22.5793 126.438 31.6105 124.902 39.7387 122.283M4.5168 100.157C12.9159 96.6344 43.0802 90.2222 48.6796 88.7772M247.999 147.751L196.882 210.518M237.523 196.52L196.882 245.108M361.341 492.022C361.341 501.998 353.255 510.085 343.279 510.085C333.303 510.085 325.216 501.998 325.216 492.022C325.216 482.047 333.303 473.96 343.279 473.96C353.255 473.96 361.341 482.047 361.341 492.022ZM144.591 492.022C144.591 501.998 136.505 510.085 126.529 510.085C116.553 510.085 108.466 501.998 108.466 492.022C108.466 482.047 116.553 473.96 126.529 473.96C136.505 473.96 144.591 482.047 144.591 492.022ZM81.734 17.2497C81.734 24.2825 76.0328 29.9838 68.9999 29.9838C61.9671 29.9838 56.2659 24.2825 56.2659 17.2497C56.2659 10.2169 61.9671 4.51562 68.9999 4.51562C76.0328 4.51562 81.734 10.2169 81.734 17.2497Z" stroke="var(--stroke-0, #494A4A)" stroke-width="9.03125" stroke-linecap="round" stroke-linejoin="round"/>
</g>
</svg>
