<svg preserveAspectRatio="none" width="100%" height="100%" overflow="visible" style="display: block;" viewBox="0 0 66 38" fill="none" xmlns="http://www.w3.org/2000/svg">
<g id="Logo">
<path id="Vector" d="M38.3225 26.6302C38.2694 24.6084 48.087 9.43819 50.1227 6.3085C50.2767 6.07204 50.1015 5.75854 49.8175 5.76651L46.9935 5.8409C46.8767 5.84356 46.7679 5.90467 46.7069 6.00562C45.8363 7.40575 39.5116 17.5866 38.9728 18.4739C37.9801 20.1105 35.894 23.6653 35.4693 25.533C35.1907 26.7578 35.2199 30.0894 39.2276 29.9858C41.2208 29.9353 42.4895 28.5352 42.8345 28.1021C42.8956 28.0251 42.9221 27.9268 42.9062 27.8285C42.877 27.6372 42.6779 27.4406 42.5107 27.5336C40.8094 28.482 37.4467 29.744 38.3225 26.6302Z" fill="var(--fill-0, black)"/>
<path id="Vector_2" d="M49.8344 10.8105L40.0398 10.7813C39.8115 10.7813 39.6899 10.5979 39.8412 10.4784L41.6826 9.04107C41.7331 9.00122 41.8072 8.97996 41.8813 8.97996H51.7322C52.5576 8.97996 52.0178 9.62044 51.5121 9.8813L50.0331 10.7494C49.9826 10.7892 49.9085 10.8105 49.8344 10.8105Z" fill="var(--fill-0, black)"/>
<path id="Vector_3" d="M32.149 24.0358C32.149 19.0969 39.1478 13.988 37.619 13.8047C36.5946 13.6825 35.5966 13.2414 34.1077 14.5379C33.2663 15.2712 32.3852 16.8334 32.3852 16.8334C32.3852 16.8334 32.6771 13.3504 28.7279 13.2919C26.0074 13.2521 22.0051 14.7983 20.1286 18.9269C17.4427 24.8355 18.9369 27.107 23.3002 27.107C27.6636 27.107 29.1976 23.802 29.1976 23.802C29.1976 23.802 28.9614 27.107 32.9717 27.107C34.7739 27.107 35.9443 26.6076 36.3371 26.3153C36.4592 26.225 36.3079 26.0098 36.3079 26.0098C36.3079 26.0098 32.1463 26.4056 32.1463 24.0385L32.149 24.0358ZM29.6276 20.8185C28.481 22.6782 26.7426 26.2117 23.6108 26.0496C21.2699 25.9274 22.6208 21.7191 23.6108 19.801C24.8343 17.4311 27.2814 15.1623 29.0968 15.1623C32.1649 15.1623 30.7927 18.9295 29.6276 20.8185Z" fill="var(--fill-0, black)"/>
<path id="Vector_4" d="M58.0424 24.0358C58.0424 19.0969 65.0412 13.988 63.5125 13.8047C62.488 13.6825 61.49 13.2414 60.0011 14.5379C59.1597 15.2712 58.2786 16.8334 58.2786 16.8334C58.2786 16.8334 58.5705 13.3504 54.6213 13.2919C51.9008 13.2521 47.8985 14.7983 46.022 18.9269C43.3361 24.8355 44.8303 27.107 49.1936 27.107C53.557 27.107 55.091 23.802 55.091 23.802C55.091 23.802 54.8548 27.107 58.8651 27.107C60.6673 27.107 61.8377 26.6076 62.2305 26.3153C62.3526 26.225 62.2013 26.0098 62.2013 26.0098C62.2013 26.0098 58.0397 26.4056 58.0397 24.0385L58.0424 24.0358ZM55.521 20.8185C54.3744 22.6782 52.636 26.2117 49.5042 26.0496C47.1633 25.9274 48.5142 21.7191 49.5042 19.801C50.7277 17.4311 53.1748 15.1623 54.9902 15.1623C58.0583 15.1623 56.6861 18.9295 55.521 20.8185Z" fill="var(--fill-0, black)"/>
<path id="Vector_5" d="M38.414 34.9296C33.6631 34.5337 28.765 30.8232 28.3124 31.2738C27.8598 31.7245 31.1748 37.1675 37.7357 37.7148C44.4002 38.27 45.5167 36.5796 49.7289 32.9313C49.9062 32.7777 51.6881 31.1856 49.3935 32.4424C47.0989 33.6993 42.711 35.2882 38.4113 34.9296H38.414Z" fill="var(--fill-0, black)"/>
<path id="Vector_6" d="M18.1491 18.2867C18.3641 18.7596 18.4517 19.2776 18.4517 19.708C18.4517 22.2081 16.1267 24.7081 14.5767 25.8718C12.8117 27.1205 10.8742 27.6385 9.02159 27.6385C7.60164 27.6385 6.30908 27.3357 5.23151 26.7326C3.20907 25.6566 1.75461 22.9706 1.66703 19.4371C1.49451 10.7308 8.89154 2.90122 13.7565 0.701399C14.8766 0.271 15.5003 7.62939e-06 16.5779 7.62939e-06C17.6554 7.62939e-06 19.2267 0.271 19.9566 0.87409C21.4216 2.16794 22.539 3.84703 22.539 5.52878C22.539 6.30456 22.3665 7.16536 21.9365 8.02881C21.204 9.49536 20.6015 10.9592 20.3016 11.9077C20.0866 12.641 19.4841 13.0714 18.6215 12.5533C17.7616 11.9927 17.1591 11.0443 17.1591 9.79558C17.1591 9.2775 17.2441 8.76209 17.4166 8.2015C17.5891 7.55591 17.8917 6.86514 18.1491 6.21954C18.7516 4.71049 19.8716 3.40069 19.0515 2.44956C17.3927 0.953794 11.2112 5.51549 7.6388 11.2913C5.74376 14.352 4.93956 17.6118 4.93956 20.1995C4.93956 23.9058 6.30908 26.2862 7.85909 26.2862C10.2266 26.2862 14.2741 25.2979 16.4239 18.1565C16.7265 17.5534 17.7165 17.2957 18.1465 18.2867H18.1491Z" fill="var(--fill-0, black)"/>
<path id="Vector_7" d="M28.2086 6.03888C28.6836 5.6085 29.241 5.69351 29.586 6.25407C30.276 7.4177 31.051 7.72056 31.9534 7.72056C32.6859 7.72056 33.5033 7.33269 34.3632 6.34174C35.0533 5.56599 35.4408 5.73868 35.7407 6.42676C35.9132 6.90231 35.7831 7.97826 34.9657 8.83903C34.1031 9.74496 32.8557 10.2178 31.3058 10.2178C29.9708 10.2178 28.9384 9.87248 28.2484 9.13924C27.7733 8.62118 27.5159 7.97561 27.5159 7.41505C27.5159 6.94216 27.7733 6.4241 28.2033 6.03623L28.2086 6.03888Z" fill="var(--fill-0, black)"/>
<path id="Vector_8" d="M55.7844 7.10956C56.2595 6.67918 56.8168 6.76419 57.1619 7.32475C57.8519 8.48838 58.6269 8.79124 59.5293 8.79124C60.2618 8.79124 61.0792 8.40337 61.9391 7.41242C62.6292 6.63667 63.0166 6.80935 63.3165 7.49744C63.4891 7.97298 63.359 9.04894 62.5416 9.90971C61.679 10.8156 60.4316 11.2885 58.8817 11.2885C57.5467 11.2885 56.5143 10.9432 55.8242 10.2099C55.3492 9.69186 55.0917 9.04628 55.0917 8.48572C55.0917 8.01283 55.3492 7.49478 55.7791 7.1069L55.7844 7.10956Z" fill="var(--fill-0, black)"/>
</g>
</svg>
