<svg preserveAspectRatio="none" width="100%" height="100%" overflow="visible" style="display: block;" viewBox="0 0 204 117.455" fill="none" xmlns="http://www.w3.org/2000/svg">
<g id="Logo" clip-path="url(#clip0_0_61)">
<path id="Vector" d="M118.451 82.3116C118.287 76.0624 148.632 29.1726 154.925 19.499C155.4 18.7681 154.859 17.7991 153.981 17.8237L145.253 18.0537C144.892 18.0619 144.555 18.2508 144.367 18.5628C141.676 22.8905 122.126 54.3584 120.461 57.1012C117.393 62.1597 110.945 73.1472 109.632 78.9201C108.771 82.7058 108.861 93.0035 121.249 92.6833C127.41 92.5272 131.331 88.1996 132.397 86.861C132.586 86.6229 132.668 86.319 132.619 86.0152C132.529 85.4239 131.913 84.8163 131.397 85.1037C126.138 88.0353 115.744 91.936 118.451 82.3116Z" fill="var(--fill-0, black)"/>
<path id="Vector_2" d="M154.033 33.4142L123.759 33.3239C123.054 33.3239 122.678 32.7572 123.145 32.3877L128.837 27.9451C128.993 27.8219 129.222 27.7562 129.451 27.7562H159.899C162.451 27.7562 160.782 29.7359 159.219 30.5422L154.648 33.2253C154.492 33.3485 154.263 33.4142 154.033 33.4142Z" fill="var(--fill-0, black)"/>
<path id="Vector_3" d="M99.3716 74.2926C99.3716 59.0269 121.004 43.2356 116.279 42.669C113.113 42.2913 110.028 40.9281 105.426 44.9355C102.825 47.2019 100.102 52.0304 100.102 52.0304C100.102 52.0304 101.004 41.2648 88.7972 41.0841C80.3886 40.961 68.0177 45.7402 62.2178 58.5013C53.9158 76.7643 58.5344 83.7854 72.021 83.7854C85.5076 83.7854 90.2493 73.5699 90.2493 73.5699C90.2493 73.5699 89.5191 83.7854 101.915 83.7854C107.485 83.7854 111.103 82.2416 112.317 81.3383C112.694 81.0591 112.227 80.3939 112.227 80.3939C112.227 80.3939 99.3634 81.6175 99.3634 74.3008L99.3716 74.2926ZM91.5782 64.3481C88.0343 70.0964 82.661 81.018 72.9808 80.5171C65.7453 80.1394 69.9209 67.1319 72.9808 61.203C76.7626 53.8781 84.3263 46.8652 89.9375 46.8652C99.4208 46.8652 95.1796 58.5095 91.5782 64.3481Z" fill="var(--fill-0, black)"/>
<path id="Vector_4" d="M179.403 74.2926C179.403 59.0269 201.036 43.2356 196.31 42.669C193.144 42.2913 190.059 40.9281 185.457 44.9355C182.857 47.2019 180.133 52.0304 180.133 52.0304C180.133 52.0304 181.035 41.2648 168.828 41.0841C160.42 40.961 148.049 45.7402 142.249 58.5013C133.947 76.7643 138.566 83.7854 152.052 83.7854C165.539 83.7854 170.281 73.5699 170.281 73.5699C170.281 73.5699 169.55 83.7854 181.946 83.7854C187.516 83.7854 191.134 82.2416 192.348 81.3383C192.725 81.0591 192.258 80.3939 192.258 80.3939C192.258 80.3939 179.395 81.6175 179.395 74.3008L179.403 74.2926ZM171.609 64.3481C168.066 70.0964 162.692 81.018 153.012 80.5171C145.777 80.1394 149.952 67.1319 153.012 61.203C156.794 53.8781 164.358 46.8652 169.969 46.8652C179.452 46.8652 175.211 58.5095 171.609 64.3481Z" fill="var(--fill-0, black)"/>
<path id="Vector_5" d="M120.709 108.165C106.585 108.591 88.9112 95.2718 87.5123 96.6647C86.1133 98.0576 103.001 114.612 116.639 116.573C133.396 118.983 140.897 112.884 153.709 101.788C154.257 101.313 159.765 96.3918 152.672 100.277C145.58 104.162 134.834 107.739 120.709 108.165Z" fill="var(--fill-0, #261407)"/>
<path id="Vector_6" d="M56.0954 56.5224C56.7599 57.9841 57.0306 59.5854 57.0306 60.9157C57.0306 68.6431 49.8442 76.3705 45.0533 79.9673C39.5979 83.8269 33.6092 85.4282 27.8831 85.4282C23.4941 85.4282 19.4989 84.492 16.1683 82.6279C9.91708 79.3021 5.42148 70.9999 5.15076 60.0781C4.61753 33.1678 27.4811 8.96735 42.5184 2.16791C45.9803 0.837582 47.9082 -3.05176e-05 51.2388 -3.05176e-05C54.5695 -3.05176e-05 59.4261 0.837582 61.6821 2.70168C66.2105 6.70087 69.6642 11.8908 69.6642 17.0889C69.6642 19.4868 69.131 22.1474 67.802 24.8163C65.5378 29.3492 63.6756 33.874 62.7485 36.8056C62.0841 39.0721 60.2218 40.4024 57.5556 38.8011C54.8977 37.0684 53.0354 34.1368 53.0354 30.2772C53.0354 28.6759 53.2979 27.0828 53.8312 25.3501C54.3644 23.3546 55.2996 21.2195 56.0954 19.224C57.9576 14.5596 61.4196 10.5112 58.8846 7.57133C53.7574 2.94804 34.6511 17.0478 23.609 34.9005C17.7516 44.3606 15.2659 54.4365 15.2659 62.4349C15.2659 73.8905 19.4989 81.2483 24.2899 81.2483C31.6075 81.2483 44.1181 78.1935 50.763 56.12C51.6982 54.2559 54.7582 53.4593 56.0872 56.5224H56.0954Z" fill="var(--fill-0, black)"/>
<path id="Vector_7" d="M87.1909 18.6656C88.6593 17.3353 90.382 17.5981 91.4484 19.3307C93.5813 22.9274 95.9767 23.8635 98.7658 23.8635C101.03 23.8635 103.557 22.6646 106.214 19.6017C108.347 17.2039 109.545 17.7377 110.472 19.8645C111.005 21.3344 110.603 24.66 108.077 27.3206C105.41 30.1207 101.555 31.5824 96.7642 31.5824C92.6379 31.5824 89.4468 30.5149 87.3139 28.2485C85.8455 26.6473 85.0498 24.6518 85.0498 22.9192C85.0498 21.4575 85.8455 19.8563 87.1745 18.6574L87.1909 18.6656Z" fill="var(--fill-0, black)"/>
<path id="Vector_8" d="M172.425 21.975C173.894 20.6447 175.616 20.9075 176.683 22.6401C178.816 26.2368 181.211 27.1729 184 27.1729C186.264 27.1729 188.791 25.974 191.449 22.9111C193.582 20.5133 194.779 21.0471 195.706 23.1739C196.24 24.6437 195.838 27.9694 193.311 30.63C190.645 33.4301 186.789 34.8918 181.999 34.8918C177.872 34.8918 174.681 33.8243 172.548 31.5579C171.08 29.9566 170.284 27.9612 170.284 26.2286C170.284 24.7669 171.08 23.1657 172.409 21.9668L172.425 21.975Z" fill="var(--fill-0, black)"/>
</g>
<defs>
<clipPath id="clip0_0_61">
<rect width="204" height="117.455" fill="white"/>
</clipPath>
</defs>
</svg>
