<svg preserveAspectRatio="none" width="100%" height="100%" overflow="visible" style="display: block;" viewBox="0 0 80.0488 88.8146" fill="none" xmlns="http://www.w3.org/2000/svg">
<g id="Group 144">
<path id="Vector" d="M4.75189 57.9148V68.8675C4.75189 70.9424 5.57825 72.9323 7.04918 74.3995C8.5201 75.8667 10.5151 76.6909 12.5953 76.6909H50.2045C51.6623 76.6954 53.0923 76.2925 54.3323 75.5278C55.5723 74.7632 56.5728 73.6674 57.2204 72.3646L79.2251 28.5771C79.7669 27.4891 80.0488 26.2909 80.0488 25.0761C80.0488 23.8614 79.7669 22.6631 79.2251 21.5752L70.5503 4.32459C69.6238 2.4764 68.0019 1.06887 66.0386 0.409282C64.0754 -0.250308 61.9302 -0.108384 60.0715 0.804069L48.3809 6.38605L48.3103 6.42126C46.4496 7.34878 45.0345 8.97556 44.3763 10.9438C43.718 12.9119 43.8706 15.0603 44.8004 16.9163L44.867 17.0454L50.0476 26.6525L38.3805 50.0914H12.5953C10.5151 50.0914 8.5201 50.9156 7.04918 52.3828C5.57825 53.85 4.75189 55.8399 4.75189 57.9148Z" fill="var(--fill-0, #FFC4FF)"/>
<rect id="Rectangle 166" x="9.427e-05" y="82.5742" width="64.4816" height="6.24016" rx="3.12008" fill="var(--fill-0, black)"/>
</g>
</svg>
