<svg preserveAspectRatio="none" width="100%" height="100%" overflow="visible" style="display: block;" viewBox="0 0 169.496 139.228" fill="none" xmlns="http://www.w3.org/2000/svg">
<g id="Group 197">
<rect id="Rectangle 122" width="169.496" height="139.228" rx="30.1326" fill="var(--fill-0, #229959)"/>
<path id="Rectangle 123" d="M112.613 108.121H65.5641C60.5715 108.121 56.5243 104.074 56.5243 99.0817V40.1907C56.5243 35.1982 60.5624 31.1509 65.5549 31.1509H103.638L121.653 48.8571V99.0909C121.653 104.083 117.606 108.121 112.613 108.121Z" fill="var(--fill-0, #FFC4FF)"/>
<g id="Group 124">
<g id="Group 123">
<path id="Polygon 1" d="M97.7515 74.3883L117.488 108.574H78.0145L97.7515 74.3883Z" fill="var(--fill-0, black)"/>
<path id="Polygon 2" d="M77.1189 79.3669L93.9387 108.5H60.2991L77.1189 79.3669Z" fill="var(--fill-0, black)"/>
</g>
<path id="Intersect" d="M93.8967 108.5H78.0149L85.9553 94.7459L93.8967 108.5Z" fill="var(--fill-0, white)"/>
</g>
<path id="Subtract" d="M70.9541 55.3475C70.9541 45.3325 79.073 37.214 89.0879 37.2137C99.103 37.2137 107.223 45.3324 107.223 55.3475L70.9541 55.3475Z" fill="var(--fill-0, white)"/>
</g>
</svg>
