<svg preserveAspectRatio="none" width="100%" height="100%" overflow="visible" style="display: block;" viewBox="0 0 175.703 153.696" fill="none" xmlns="http://www.w3.org/2000/svg">
<g id="Group 139">
<rect id="Rectangle 149" y="8.18605e-05" width="170.354" height="139.932" fill="var(--fill-0, #229959)"/>
<rect id="Rectangle 150" x="0.0519799" y="83.2808" width="170.337" height="56.6639" fill="var(--fill-0, #FFC4FF)"/>
<path id="Subtract" d="M37.9701 82.8061C37.9703 56.7349 59.106 35.6 85.1772 35.6C111.248 35.6002 132.383 56.735 132.383 82.8061L37.9701 82.8061Z" fill="var(--fill-0, white)"/>
<rect id="Rectangle 151" x="36.5207" y="85.105" width="97.2449" height="1.72756" rx="0.863778" fill="var(--fill-0, white)"/>
<rect id="Rectangle 152" x="46.7824" y="94.0942" width="71.5209" height="1.72756" rx="0.863778" fill="var(--fill-0, white)"/>
<rect id="Rectangle 153" x="50.6701" y="89.4272" width="63.7468" height="1.72756" rx="0.863778" fill="var(--fill-0, white)"/>
<path id="Vector" d="M143.434 117.123C143.791 122.027 143.364 126.957 142.169 131.726L135.832 131.665C137.146 127.112 137.645 122.362 137.305 117.635C136.432 106.724 130.706 98.2389 120.324 92.383C112.791 102.004 118.786 110.971 119.07 111.391C119.533 112.059 119.713 112.884 119.57 113.684C119.428 114.485 118.975 115.197 118.311 115.664C117.646 116.132 116.824 116.317 116.023 116.18C115.223 116.043 114.509 115.595 114.037 114.933C112.275 112.205 111.114 109.132 110.63 105.92C109.96 101.578 110.639 97.1341 112.576 93.1915C111.817 93.5037 111.078 93.8638 110.365 94.2695C104.239 97.7346 101.136 104.102 101.136 113.135C101.136 113.951 100.812 114.735 100.235 115.312C99.6584 115.89 98.876 116.215 98.0601 116.215C97.2443 116.215 96.4618 115.89 95.8849 115.312C95.308 114.735 94.9839 113.951 94.9839 113.135C94.9839 98.9319 101.671 92.1174 107.289 88.9026C109.75 87.5178 112.412 86.5267 115.179 85.9651C113.833 83.4202 111.688 80.475 108.884 79.5702C106.354 78.7502 103.332 79.6472 99.9058 82.2383C99.2534 82.7003 98.447 82.8899 97.6574 82.7671C96.8677 82.6443 96.1568 82.2186 95.6751 81.5802C95.1934 80.9418 94.9787 80.1408 95.0765 79.3467C95.1743 78.5526 95.5769 77.8278 96.199 77.3256C101.336 73.441 106.25 72.2282 110.811 73.7182C114.083 74.7846 117.044 77.2987 119.42 81.0101C121.397 77.4604 124.565 73.4487 129.368 71.3851C135.044 68.9442 141.573 69.7488 148.779 73.7721C149.493 74.1703 150.019 74.8362 150.243 75.6232C150.466 76.4102 150.368 77.2538 149.971 77.9686C149.573 78.6834 148.908 79.2107 148.122 79.4345C147.336 79.6583 146.493 79.5603 145.779 79.1621C140.342 76.1206 135.663 75.4083 131.817 77.0407C128.826 78.319 126.672 80.86 125.2 83.297C127.924 82.6098 130.728 82.2926 133.536 82.3538C140.608 82.5771 149.782 85.838 153.339 100.064C153.537 100.856 153.412 101.695 152.992 102.395C152.573 103.095 151.893 103.6 151.101 103.798C150.858 103.861 150.607 103.892 150.355 103.891C149.668 103.89 149.001 103.659 148.46 103.235C147.92 102.811 147.536 102.218 147.371 101.55C145.233 92.999 140.642 88.7294 133.336 88.4907C131.168 88.4511 129.004 88.6957 126.899 89.2183C139.235 97.6306 142.765 108.765 143.434 117.123Z" fill="var(--fill-0, black)"/>
<path id="Ellipse 35" d="M105.088 153.696C105.088 146.864 89.1945 142.017 115.41 135.482C122.019 130.651 130.983 127.937 140.33 127.937C149.677 127.937 155.218 133.827 165.25 135.482C177.645 137.526 175.572 146.864 175.572 153.696L140.33 153.696L105.088 153.696Z" fill="var(--fill-0, black)"/>
</g>
</svg>
