<svg preserveAspectRatio="none" width="100%" height="100%" overflow="visible" style="display: block;" viewBox="0 0 169.496 139.228" fill="none" xmlns="http://www.w3.org/2000/svg">
<g id="Group 199">
<rect id="Rectangle 124" width="169.496" height="139.228" rx="30.1326" fill="var(--fill-0, #229959)"/>
<path id="Rectangle 125" d="M112.614 108.121H65.5642C60.5716 108.121 56.5244 104.074 56.5244 99.0817V40.1907C56.5244 35.1982 60.5625 31.1509 65.555 31.1509H103.638L121.653 48.8571V99.0909C121.653 104.083 117.606 108.121 112.614 108.121Z" fill="var(--fill-0, #FFC4FF)"/>
<g id="Group 125">
<path id="Polygon 3" d="M67.2508 68.5786L73.9835 87.0573H60.5181L67.2508 68.5786Z" fill="var(--fill-0, black)"/>
<path id="Polygon 4" d="M67.2508 57.9896L73.9835 76.4683H60.5181L67.2508 57.9896Z" fill="var(--fill-0, black)"/>
</g>
<g id="Group 126">
<path id="Polygon 3_2" d="M83.6516 68.5786L90.3842 87.0573H76.9189L83.6516 68.5786Z" fill="var(--fill-0, black)"/>
<path id="Polygon 4_2" d="M83.6516 57.9895L90.3842 76.4682H76.9189L83.6516 57.9895Z" fill="var(--fill-0, black)"/>
</g>
<circle id="Ellipse 27" cx="102.272" cy="51.7378" r="10.1413" fill="var(--fill-0, white)"/>
<path id="Vector 48" d="M89.1022 97.2763H56.4685V102.839C62.329 102.839 91.2402 103.034 93.8781 102.839C96.8057 102.623 96.6615 100.721 97.0271 99.8479C97.3935 98.9733 98.1817 97.2763 100.071 97.2763H121.527V91.9231C116.769 91.9231 102.107 91.9234 98.4966 91.9231C94.5114 91.9227 93.8098 93.7308 93.5108 94.8096C93.2584 95.72 92.0413 97.2763 89.1022 97.2763Z" fill="var(--fill-0, black)"/>
<path id="Vector 46" d="M89.1022 86.7666H56.4685V92.3298C62.329 92.3298 91.2402 92.5245 93.8781 92.3298C96.8057 92.1137 96.6615 90.2109 97.0271 89.3383C97.3935 88.4636 98.1817 86.7666 100.071 86.7666H121.527V81.4134C116.769 81.4134 102.107 81.4137 98.4966 81.4134C94.5114 81.4131 93.8098 83.2212 93.5108 84.3C93.2584 85.2103 92.0413 86.7666 89.1022 86.7666Z" fill="var(--fill-0, black)"/>
<path id="Vector 47" d="M89.1022 91.7746H56.4685V97.3378C62.329 97.3378 91.2402 97.5325 93.8781 97.3378C96.8057 97.1217 96.6615 95.2189 97.0271 94.3463C97.3935 93.4716 98.1817 91.7746 100.071 91.7746H121.527V86.4214C116.769 86.4214 102.107 86.4217 98.4966 86.4214C94.5114 86.4211 93.8098 88.2292 93.5108 89.308C93.2584 90.2183 92.0413 91.7746 89.1022 91.7746Z" fill="var(--fill-0, #FFC4FF)"/>
</g>
</svg>
