<svg preserveAspectRatio="none" width="100%" height="100%" overflow="visible" style="display: block;" viewBox="0 0 169.646 138.896" fill="none" xmlns="http://www.w3.org/2000/svg">
<g id="Frame 79">
<g clip-path="url(#clip0_0_53)">
<rect width="169.646" height="138.896" rx="30.1326" fill="var(--fill-0, #229959)"/>
<path id="Vector" d="M84.1282 88.1605C83.8967 91.3309 84.1732 94.5179 84.947 97.6011L89.0488 97.5612C88.1982 94.618 87.8755 91.5473 88.0956 88.4915C88.6605 81.4378 92.3666 75.9521 99.0868 72.1664C103.963 78.3863 100.082 84.1831 99.8982 84.4544C99.5988 84.8866 99.4825 85.4196 99.5747 85.9372C99.6668 86.4548 99.9599 86.915 100.39 87.2173C100.82 87.5196 101.352 87.6395 101.871 87.5509C102.389 87.4623 102.851 87.1723 103.156 86.7443C104.297 84.9807 105.048 82.9944 105.361 80.9176C105.795 78.1105 105.356 75.2379 104.102 72.6891C104.593 72.891 105.071 73.1237 105.533 73.386C109.498 75.6261 111.507 79.7428 111.507 85.5819C111.507 86.11 111.716 86.6165 112.09 86.9899C112.463 87.3633 112.97 87.5731 113.498 87.5731C114.026 87.5731 114.532 87.3633 114.906 86.9899C115.279 86.6165 115.489 86.11 115.489 85.5819C115.489 76.4002 111.161 71.9947 107.524 69.9164C105.931 69.0212 104.208 68.3804 102.417 68.0174C103.288 66.3722 104.677 64.4681 106.491 63.8832C108.129 63.3531 110.085 63.933 112.303 65.6081C112.725 65.9067 113.247 66.0293 113.759 65.9499C114.27 65.8706 114.73 65.5954 115.042 65.1827C115.353 64.7699 115.492 64.2521 115.429 63.7387C115.366 63.2254 115.105 62.7568 114.702 62.4321C111.377 59.9208 108.196 59.1368 105.244 60.1C103.126 60.7894 101.21 62.4147 99.6717 64.8141C98.3924 62.5193 96.3415 59.9258 93.2328 58.5917C89.5591 57.0137 85.3328 57.5339 80.6685 60.1348C80.2064 60.3923 79.8656 60.8227 79.7209 61.3315C79.5762 61.8403 79.6395 62.3857 79.8969 62.8478C80.1544 63.3099 80.5848 63.6508 81.0936 63.7955C81.6024 63.9402 82.1478 63.8768 82.6099 63.6194C86.1293 61.6531 89.1583 61.1926 91.6473 62.248C93.5837 63.0743 94.9775 64.717 95.9308 66.2925C94.1676 65.8483 92.3526 65.6432 90.5347 65.6827C85.9575 65.8271 80.0189 67.9352 77.7166 77.1319C77.5886 77.6442 77.6693 78.1863 77.941 78.639C78.2126 79.0917 78.653 79.4181 79.1652 79.5462C79.3229 79.5867 79.4852 79.6068 79.648 79.6059C80.0927 79.6056 80.5245 79.4564 80.8745 79.1821C81.2246 78.9079 81.4727 78.5243 81.5795 78.0926C82.9633 72.5647 85.9351 69.8044 90.6642 69.6501C92.0676 69.6245 93.4683 69.7827 94.8307 70.1205C86.8461 75.5589 84.5612 82.7569 84.1282 88.1605Z" fill="var(--fill-0, #FFC4FF)"/>
<path id="Vector_2" d="M134.074 113.089C133.991 114.239 134.091 115.394 134.371 116.512L135.858 116.497C135.55 115.43 135.433 114.317 135.513 113.209C135.717 110.653 137.061 108.664 139.497 107.292C141.264 109.546 139.858 111.648 139.791 111.746C139.682 111.903 139.64 112.096 139.674 112.284C139.707 112.471 139.813 112.638 139.969 112.748C140.125 112.857 140.318 112.901 140.506 112.868C140.694 112.836 140.861 112.731 140.972 112.576C141.385 111.937 141.658 111.217 141.771 110.464C141.929 109.446 141.769 108.405 141.315 107.481C141.493 107.554 141.666 107.639 141.834 107.734C143.271 108.546 143.999 110.038 143.999 112.155C143.999 112.346 144.075 112.53 144.21 112.665C144.346 112.8 144.529 112.877 144.721 112.877C144.912 112.877 145.096 112.8 145.231 112.665C145.366 112.53 145.442 112.346 145.442 112.155C145.442 108.826 143.874 107.229 142.555 106.476C141.978 106.152 141.353 105.919 140.704 105.788C141.02 105.191 141.523 104.501 142.181 104.289C142.775 104.097 143.484 104.307 144.288 104.914C144.441 105.023 144.63 105.067 144.815 105.038C145 105.009 145.167 104.91 145.28 104.76C145.393 104.611 145.444 104.423 145.421 104.237C145.398 104.051 145.303 103.881 145.157 103.763C143.952 102.853 142.799 102.569 141.729 102.918C140.961 103.168 140.266 103.757 139.709 104.627C139.245 103.795 138.502 102.855 137.375 102.371C136.043 101.799 134.511 101.987 132.82 102.93C132.653 103.024 132.529 103.18 132.477 103.364C132.424 103.549 132.447 103.746 132.541 103.914C132.634 104.081 132.79 104.205 132.974 104.257C133.159 104.31 133.357 104.287 133.524 104.193C134.8 103.481 135.898 103.314 136.8 103.696C137.502 103.996 138.007 104.591 138.353 105.162C137.714 105.001 137.056 104.927 136.397 104.941C134.738 104.994 132.585 105.758 131.75 109.092C131.704 109.277 131.733 109.474 131.832 109.638C131.93 109.802 132.09 109.92 132.275 109.967C132.333 109.981 132.391 109.989 132.45 109.988C132.612 109.988 132.768 109.934 132.895 109.835C133.022 109.735 133.112 109.596 133.151 109.44C133.652 107.436 134.729 106.435 136.444 106.38C136.952 106.37 137.46 106.428 137.954 106.55C135.06 108.521 134.231 111.131 134.074 113.089Z" fill="var(--fill-0, #FFC4FF)"/>
<g id="Group 138">
<path id="Vector 49" d="M71.0071 93.1484C44.4718 92.3191 11.0033 103.053 -2.41406 108.524V139.92H172.933V126.145C169.075 124.935 167.578 124.072 150.475 120.789C126.062 116.104 104.176 94.1849 71.0071 93.1484Z" fill="var(--fill-0, black)"/>
<g id="Group 137">
<path id="Subtract" d="M44.3389 95.3454C53.3493 93.7993 62.5317 92.8842 71.0068 93.1491C104.176 94.1856 123.348 113.674 150.475 120.79C170.89 126.145 177.247 123.348 172.933 126.145V139.921H32.9893L46.2705 139.62C39.2452 133.228 23.9847 121.999 23.9844 111.806C23.9844 105.567 31.9043 98.6879 44.3389 95.3454Z" fill="var(--fill-0, #FFC4FF)"/>
</g>
</g>
</g>
</g>
<defs>
<clipPath id="clip0_0_53">
<rect width="169.646" height="138.896" rx="30.1326" fill="white"/>
</clipPath>
</defs>
</svg>
